<mxfile host="app.diagrams.net" agent="Mozilla/5.0 (Windows NT 10.0; Win64; x64) AppleWebKit/537.36 (KHTML, like Gecko) Chrome/139.0.0.0 Safari/537.36" version="28.2.2">
  <diagram name="ページ1" id="Rh94h8LwEl5ePlfgIjTX">
    <mxGraphModel dx="793" dy="465" grid="1" gridSize="10" guides="1" tooltips="1" connect="1" arrows="1" fold="1" page="1" pageScale="1" pageWidth="827" pageHeight="1169" math="0" shadow="0">
      <root>
        <mxCell id="0" />
        <mxCell id="1" parent="0" />
        <mxCell id="l3sn0E2gZxe4r7Lx6oQ4-1" value="" style="shape=umlLifeline;perimeter=lifelinePerimeter;whiteSpace=wrap;html=1;container=1;dropTarget=0;collapsible=0;recursiveResize=0;outlineConnect=0;portConstraint=eastwest;newEdgeStyle={&quot;curved&quot;:0,&quot;rounded&quot;:0};participant=umlBoundary;fillColor=#d5e8d4;strokeColor=#82b366;" vertex="1" parent="1">
          <mxGeometry x="160" y="120" width="50" height="300" as="geometry" />
        </mxCell>
        <mxCell id="l3sn0E2gZxe4r7Lx6oQ4-11" value="" style="html=1;points=[[0,0,0,0,5],[0,1,0,0,-5],[1,0,0,0,5],[1,1,0,0,-5]];perimeter=orthogonalPerimeter;outlineConnect=0;targetShapes=umlLifeline;portConstraint=eastwest;newEdgeStyle={&quot;curved&quot;:0,&quot;rounded&quot;:0};" vertex="1" parent="l3sn0E2gZxe4r7Lx6oQ4-1">
          <mxGeometry x="20" y="130" width="10" height="100" as="geometry" />
        </mxCell>
        <mxCell id="l3sn0E2gZxe4r7Lx6oQ4-2" value="" style="shape=umlLifeline;perimeter=lifelinePerimeter;whiteSpace=wrap;html=1;container=1;dropTarget=0;collapsible=0;recursiveResize=0;outlineConnect=0;portConstraint=eastwest;newEdgeStyle={&quot;curved&quot;:0,&quot;rounded&quot;:0};participant=umlBoundary;fillColor=#d5e8d4;strokeColor=#82b366;" vertex="1" parent="1">
          <mxGeometry x="400" y="120" width="50" height="300" as="geometry" />
        </mxCell>
        <mxCell id="l3sn0E2gZxe4r7Lx6oQ4-26" value="" style="html=1;points=[[0,0,0,0,5],[0,1,0,0,-5],[1,0,0,0,5],[1,1,0,0,-5]];perimeter=orthogonalPerimeter;outlineConnect=0;targetShapes=umlLifeline;portConstraint=eastwest;newEdgeStyle={&quot;curved&quot;:0,&quot;rounded&quot;:0};" vertex="1" parent="l3sn0E2gZxe4r7Lx6oQ4-2">
          <mxGeometry x="20" y="200" width="10" height="25" as="geometry" />
        </mxCell>
        <mxCell id="l3sn0E2gZxe4r7Lx6oQ4-4" value="" style="shape=umlLifeline;perimeter=lifelinePerimeter;whiteSpace=wrap;html=1;container=1;dropTarget=0;collapsible=0;recursiveResize=0;outlineConnect=0;portConstraint=eastwest;newEdgeStyle={&quot;curved&quot;:0,&quot;rounded&quot;:0};participant=umlControl;fillColor=#f8cecc;strokeColor=#b85450;" vertex="1" parent="1">
          <mxGeometry x="280" y="120" width="40" height="300" as="geometry" />
        </mxCell>
        <mxCell id="l3sn0E2gZxe4r7Lx6oQ4-21" value="" style="html=1;points=[[0,0,0,0,5],[0,1,0,0,-5],[1,0,0,0,5],[1,1,0,0,-5]];perimeter=orthogonalPerimeter;outlineConnect=0;targetShapes=umlLifeline;portConstraint=eastwest;newEdgeStyle={&quot;curved&quot;:0,&quot;rounded&quot;:0};" vertex="1" parent="l3sn0E2gZxe4r7Lx6oQ4-4">
          <mxGeometry x="15" y="140" width="10" height="80" as="geometry" />
        </mxCell>
        <mxCell id="l3sn0E2gZxe4r7Lx6oQ4-5" value="ユーザー" style="shape=umlActor;verticalLabelPosition=bottom;verticalAlign=top;html=1;" vertex="1" parent="1">
          <mxGeometry x="60" y="120" width="30" height="60" as="geometry" />
        </mxCell>
        <mxCell id="l3sn0E2gZxe4r7Lx6oQ4-6" value="" style="endArrow=none;dashed=1;html=1;rounded=0;" edge="1" parent="1" source="l3sn0E2gZxe4r7Lx6oQ4-9" target="l3sn0E2gZxe4r7Lx6oQ4-5">
          <mxGeometry width="50" height="50" relative="1" as="geometry">
            <mxPoint x="75" y="580" as="sourcePoint" />
            <mxPoint x="50" y="200" as="targetPoint" />
          </mxGeometry>
        </mxCell>
        <mxCell id="l3sn0E2gZxe4r7Lx6oQ4-10" value="" style="endArrow=none;dashed=1;html=1;rounded=0;" edge="1" parent="1" target="l3sn0E2gZxe4r7Lx6oQ4-9">
          <mxGeometry width="50" height="50" relative="1" as="geometry">
            <mxPoint x="75" y="420" as="sourcePoint" />
            <mxPoint x="75" y="180" as="targetPoint" />
          </mxGeometry>
        </mxCell>
        <mxCell id="l3sn0E2gZxe4r7Lx6oQ4-9" value="" style="html=1;points=[[0,0,0,0,5],[0,1,0,0,-5],[1,0,0,0,5],[1,1,0,0,-5]];perimeter=orthogonalPerimeter;outlineConnect=0;targetShapes=umlLifeline;portConstraint=eastwest;newEdgeStyle={&quot;curved&quot;:0,&quot;rounded&quot;:0};" vertex="1" parent="1">
          <mxGeometry x="70" y="240" width="10" height="130" as="geometry" />
        </mxCell>
        <mxCell id="l3sn0E2gZxe4r7Lx6oQ4-14" value="名前の変更画面" style="text;html=1;align=center;verticalAlign=middle;whiteSpace=wrap;rounded=0;" vertex="1" parent="1">
          <mxGeometry x="150" y="160" width="90" height="30" as="geometry" />
        </mxCell>
        <mxCell id="l3sn0E2gZxe4r7Lx6oQ4-16" value="名前の変更" style="text;html=1;align=center;verticalAlign=middle;whiteSpace=wrap;rounded=0;" vertex="1" parent="1">
          <mxGeometry x="90" y="210" width="70" height="30" as="geometry" />
        </mxCell>
        <mxCell id="l3sn0E2gZxe4r7Lx6oQ4-17" value="" style="shape=umlLifeline;perimeter=lifelinePerimeter;whiteSpace=wrap;html=1;container=1;dropTarget=0;collapsible=0;recursiveResize=0;outlineConnect=0;portConstraint=eastwest;newEdgeStyle={&quot;curved&quot;:0,&quot;rounded&quot;:0};participant=umlEntity;fillColor=#dae8fc;strokeColor=#6c8ebf;" vertex="1" parent="1">
          <mxGeometry x="520" y="120" width="40" height="300" as="geometry" />
        </mxCell>
        <mxCell id="l3sn0E2gZxe4r7Lx6oQ4-25" value="" style="html=1;points=[[0,0,0,0,5],[0,1,0,0,-5],[1,0,0,0,5],[1,1,0,0,-5]];perimeter=orthogonalPerimeter;outlineConnect=0;targetShapes=umlLifeline;portConstraint=eastwest;newEdgeStyle={&quot;curved&quot;:0,&quot;rounded&quot;:0};" vertex="1" parent="l3sn0E2gZxe4r7Lx6oQ4-17">
          <mxGeometry x="15" y="160" width="10" height="30" as="geometry" />
        </mxCell>
        <mxCell id="l3sn0E2gZxe4r7Lx6oQ4-18" value="名前の変更" style="text;html=1;align=center;verticalAlign=middle;whiteSpace=wrap;rounded=0;" vertex="1" parent="1">
          <mxGeometry x="265" y="160" width="70" height="30" as="geometry" />
        </mxCell>
        <mxCell id="l3sn0E2gZxe4r7Lx6oQ4-19" value="RoboDog" style="text;html=1;align=center;verticalAlign=middle;whiteSpace=wrap;rounded=0;" vertex="1" parent="1">
          <mxGeometry x="510" y="160" width="60" height="30" as="geometry" />
        </mxCell>
        <mxCell id="l3sn0E2gZxe4r7Lx6oQ4-20" value="名前の変更結果表示" style="text;html=1;align=center;verticalAlign=middle;whiteSpace=wrap;rounded=0;" vertex="1" parent="1">
          <mxGeometry x="390" y="160" width="70" height="30" as="geometry" />
        </mxCell>
        <mxCell id="l3sn0E2gZxe4r7Lx6oQ4-23" value="" style="endArrow=classic;html=1;rounded=0;" edge="1" parent="1">
          <mxGeometry width="50" height="50" relative="1" as="geometry">
            <mxPoint x="80" y="250" as="sourcePoint" />
            <mxPoint x="180" y="250" as="targetPoint" />
          </mxGeometry>
        </mxCell>
        <mxCell id="l3sn0E2gZxe4r7Lx6oQ4-24" value="" style="endArrow=classic;html=1;rounded=0;" edge="1" parent="1" source="l3sn0E2gZxe4r7Lx6oQ4-11" target="l3sn0E2gZxe4r7Lx6oQ4-4">
          <mxGeometry width="50" height="50" relative="1" as="geometry">
            <mxPoint x="220" y="250" as="sourcePoint" />
            <mxPoint x="270" y="250" as="targetPoint" />
            <Array as="points">
              <mxPoint x="230" y="260" />
            </Array>
          </mxGeometry>
        </mxCell>
        <mxCell id="l3sn0E2gZxe4r7Lx6oQ4-27" value="" style="endArrow=classic;html=1;rounded=0;" edge="1" parent="1" target="l3sn0E2gZxe4r7Lx6oQ4-2">
          <mxGeometry width="50" height="50" relative="1" as="geometry">
            <mxPoint x="310" y="320" as="sourcePoint" />
            <mxPoint x="540.45" y="320" as="targetPoint" />
          </mxGeometry>
        </mxCell>
        <mxCell id="l3sn0E2gZxe4r7Lx6oQ4-28" value="表示" style="text;html=1;align=center;verticalAlign=middle;whiteSpace=wrap;rounded=0;" vertex="1" parent="1">
          <mxGeometry x="340" y="320" width="60" height="30" as="geometry" />
        </mxCell>
        <mxCell id="l3sn0E2gZxe4r7Lx6oQ4-29" value="起動" style="text;html=1;align=center;verticalAlign=middle;whiteSpace=wrap;rounded=0;" vertex="1" parent="1">
          <mxGeometry x="210" y="230" width="60" height="30" as="geometry" />
        </mxCell>
        <mxCell id="l3sn0E2gZxe4r7Lx6oQ4-30" value="" style="endArrow=classic;html=1;rounded=0;" edge="1" parent="1" target="l3sn0E2gZxe4r7Lx6oQ4-17">
          <mxGeometry width="50" height="50" relative="1" as="geometry">
            <mxPoint x="310" y="280" as="sourcePoint" />
            <mxPoint x="413.4999999999998" y="280" as="targetPoint" />
          </mxGeometry>
        </mxCell>
        <mxCell id="l3sn0E2gZxe4r7Lx6oQ4-31" value="" style="endArrow=block;dashed=1;endFill=0;endSize=12;html=1;rounded=0;exitX=0;exitY=1;exitDx=0;exitDy=-5;exitPerimeter=0;" edge="1" parent="1" source="l3sn0E2gZxe4r7Lx6oQ4-25">
          <mxGeometry width="160" relative="1" as="geometry">
            <mxPoint x="470" y="285" as="sourcePoint" />
            <mxPoint x="310" y="305" as="targetPoint" />
          </mxGeometry>
        </mxCell>
        <mxCell id="l3sn0E2gZxe4r7Lx6oQ4-32" value="名前の変更" style="text;html=1;align=center;verticalAlign=middle;whiteSpace=wrap;rounded=0;" vertex="1" parent="1">
          <mxGeometry x="450" y="250" width="70" height="30" as="geometry" />
        </mxCell>
        <mxCell id="l3sn0E2gZxe4r7Lx6oQ4-34" value="ユーザー" style="shape=umlActor;verticalLabelPosition=bottom;verticalAlign=top;html=1;" vertex="1" parent="1">
          <mxGeometry x="60" y="600" width="30" height="60" as="geometry" />
        </mxCell>
        <mxCell id="l3sn0E2gZxe4r7Lx6oQ4-44" value="" style="shape=umlLifeline;perimeter=lifelinePerimeter;whiteSpace=wrap;html=1;container=1;dropTarget=0;collapsible=0;recursiveResize=0;outlineConnect=0;portConstraint=eastwest;newEdgeStyle={&quot;curved&quot;:0,&quot;rounded&quot;:0};participant=umlBoundary;fillColor=#d5e8d4;strokeColor=#82b366;" vertex="1" parent="1">
          <mxGeometry x="280" y="600" width="50" height="300" as="geometry" />
        </mxCell>
        <mxCell id="l3sn0E2gZxe4r7Lx6oQ4-61" value="" style="html=1;points=[[0,0,0,0,5],[0,1,0,0,-5],[1,0,0,0,5],[1,1,0,0,-5]];perimeter=orthogonalPerimeter;outlineConnect=0;targetShapes=umlLifeline;portConstraint=eastwest;newEdgeStyle={&quot;curved&quot;:0,&quot;rounded&quot;:0};" vertex="1" parent="l3sn0E2gZxe4r7Lx6oQ4-44">
          <mxGeometry x="20" y="140" width="10" height="80" as="geometry" />
        </mxCell>
        <mxCell id="l3sn0E2gZxe4r7Lx6oQ4-45" value="" style="shape=umlLifeline;perimeter=lifelinePerimeter;whiteSpace=wrap;html=1;container=1;dropTarget=0;collapsible=0;recursiveResize=0;outlineConnect=0;portConstraint=eastwest;newEdgeStyle={&quot;curved&quot;:0,&quot;rounded&quot;:0};participant=umlBoundary;fillColor=#d5e8d4;strokeColor=#82b366;" vertex="1" parent="1">
          <mxGeometry x="160" y="600" width="50" height="300" as="geometry" />
        </mxCell>
        <mxCell id="l3sn0E2gZxe4r7Lx6oQ4-60" value="" style="html=1;points=[[0,0,0,0,5],[0,1,0,0,-5],[1,0,0,0,5],[1,1,0,0,-5]];perimeter=orthogonalPerimeter;outlineConnect=0;targetShapes=umlLifeline;portConstraint=eastwest;newEdgeStyle={&quot;curved&quot;:0,&quot;rounded&quot;:0};" vertex="1" parent="l3sn0E2gZxe4r7Lx6oQ4-45">
          <mxGeometry x="20" y="100" width="10" height="40" as="geometry" />
        </mxCell>
        <mxCell id="l3sn0E2gZxe4r7Lx6oQ4-46" value="" style="shape=umlLifeline;perimeter=lifelinePerimeter;whiteSpace=wrap;html=1;container=1;dropTarget=0;collapsible=0;recursiveResize=0;outlineConnect=0;portConstraint=eastwest;newEdgeStyle={&quot;curved&quot;:0,&quot;rounded&quot;:0};participant=umlEntity;fillColor=#dae8fc;strokeColor=#6c8ebf;" vertex="1" parent="1">
          <mxGeometry x="640" y="600" width="40" height="310" as="geometry" />
        </mxCell>
        <mxCell id="l3sn0E2gZxe4r7Lx6oQ4-63" value="" style="html=1;points=[[0,0,0,0,5],[0,1,0,0,-5],[1,0,0,0,5],[1,1,0,0,-5]];perimeter=orthogonalPerimeter;outlineConnect=0;targetShapes=umlLifeline;portConstraint=eastwest;newEdgeStyle={&quot;curved&quot;:0,&quot;rounded&quot;:0};" vertex="1" parent="l3sn0E2gZxe4r7Lx6oQ4-46">
          <mxGeometry x="15" y="190" width="10" height="40" as="geometry" />
        </mxCell>
        <mxCell id="l3sn0E2gZxe4r7Lx6oQ4-47" value="RoboDog" style="text;html=1;align=center;verticalAlign=middle;whiteSpace=wrap;rounded=0;" vertex="1" parent="1">
          <mxGeometry x="630" y="640" width="60" height="30" as="geometry" />
        </mxCell>
        <mxCell id="l3sn0E2gZxe4r7Lx6oQ4-49" value="" style="shape=umlLifeline;perimeter=lifelinePerimeter;whiteSpace=wrap;html=1;container=1;dropTarget=0;collapsible=0;recursiveResize=0;outlineConnect=0;portConstraint=eastwest;newEdgeStyle={&quot;curved&quot;:0,&quot;rounded&quot;:0};participant=umlControl;fillColor=#f8cecc;strokeColor=#b85450;" vertex="1" parent="1">
          <mxGeometry x="520" y="600" width="40" height="300" as="geometry" />
        </mxCell>
        <mxCell id="l3sn0E2gZxe4r7Lx6oQ4-62" value="" style="html=1;points=[[0,0,0,0,5],[0,1,0,0,-5],[1,0,0,0,5],[1,1,0,0,-5]];perimeter=orthogonalPerimeter;outlineConnect=0;targetShapes=umlLifeline;portConstraint=eastwest;newEdgeStyle={&quot;curved&quot;:0,&quot;rounded&quot;:0};" vertex="1" parent="l3sn0E2gZxe4r7Lx6oQ4-49">
          <mxGeometry x="15" y="180" width="10" height="80" as="geometry" />
        </mxCell>
        <mxCell id="l3sn0E2gZxe4r7Lx6oQ4-50" value="時刻登録" style="text;html=1;align=center;verticalAlign=middle;whiteSpace=wrap;rounded=0;" vertex="1" parent="1">
          <mxGeometry x="510" y="640" width="60" height="30" as="geometry" />
        </mxCell>
        <mxCell id="l3sn0E2gZxe4r7Lx6oQ4-51" value="システムメニュー" style="text;html=1;align=center;verticalAlign=middle;whiteSpace=wrap;rounded=0;" vertex="1" parent="1">
          <mxGeometry x="155" y="640" width="60" height="30" as="geometry" />
        </mxCell>
        <mxCell id="l3sn0E2gZxe4r7Lx6oQ4-52" value="時刻入力画面" style="text;html=1;align=center;verticalAlign=middle;whiteSpace=wrap;rounded=0;" vertex="1" parent="1">
          <mxGeometry x="280" y="640" width="60" height="30" as="geometry" />
        </mxCell>
        <mxCell id="l3sn0E2gZxe4r7Lx6oQ4-53" value="" style="shape=umlLifeline;perimeter=lifelinePerimeter;whiteSpace=wrap;html=1;container=1;dropTarget=0;collapsible=0;recursiveResize=0;outlineConnect=0;portConstraint=eastwest;newEdgeStyle={&quot;curved&quot;:0,&quot;rounded&quot;:0};participant=umlBoundary;fillColor=#d5e8d4;strokeColor=#82b366;" vertex="1" parent="1">
          <mxGeometry x="400" y="600" width="50" height="300" as="geometry" />
        </mxCell>
        <mxCell id="l3sn0E2gZxe4r7Lx6oQ4-64" value="" style="html=1;points=[[0,0,0,0,5],[0,1,0,0,-5],[1,0,0,0,5],[1,1,0,0,-5]];perimeter=orthogonalPerimeter;outlineConnect=0;targetShapes=umlLifeline;portConstraint=eastwest;newEdgeStyle={&quot;curved&quot;:0,&quot;rounded&quot;:0};" vertex="1" parent="l3sn0E2gZxe4r7Lx6oQ4-53">
          <mxGeometry x="20" y="250" width="10" height="50" as="geometry" />
        </mxCell>
        <mxCell id="l3sn0E2gZxe4r7Lx6oQ4-54" value="挨拶入力画面" style="text;html=1;align=center;verticalAlign=middle;whiteSpace=wrap;rounded=0;" vertex="1" parent="1">
          <mxGeometry x="400" y="640" width="60" height="30" as="geometry" />
        </mxCell>
        <mxCell id="l3sn0E2gZxe4r7Lx6oQ4-57" value="" style="endArrow=none;dashed=1;html=1;rounded=0;" edge="1" parent="1" target="l3sn0E2gZxe4r7Lx6oQ4-34">
          <mxGeometry width="50" height="50" relative="1" as="geometry">
            <mxPoint x="80" y="960" as="sourcePoint" />
            <mxPoint x="80" y="710" as="targetPoint" />
          </mxGeometry>
        </mxCell>
        <mxCell id="l3sn0E2gZxe4r7Lx6oQ4-65" value="" style="endArrow=classic;html=1;rounded=0;" edge="1" parent="1" source="l3sn0E2gZxe4r7Lx6oQ4-45" target="l3sn0E2gZxe4r7Lx6oQ4-44">
          <mxGeometry width="50" height="50" relative="1" as="geometry">
            <mxPoint x="220" y="730" as="sourcePoint" />
            <mxPoint x="580" y="770" as="targetPoint" />
            <Array as="points">
              <mxPoint x="190" y="740" />
            </Array>
          </mxGeometry>
        </mxCell>
        <mxCell id="l3sn0E2gZxe4r7Lx6oQ4-66" value="表示" style="text;html=1;align=center;verticalAlign=middle;whiteSpace=wrap;rounded=0;" vertex="1" parent="1">
          <mxGeometry x="220" y="710" width="60" height="30" as="geometry" />
        </mxCell>
        <mxCell id="l3sn0E2gZxe4r7Lx6oQ4-67" value="" style="endArrow=classic;html=1;rounded=0;" edge="1" parent="1" target="l3sn0E2gZxe4r7Lx6oQ4-44">
          <mxGeometry width="50" height="50" relative="1" as="geometry">
            <mxPoint x="80" y="820" as="sourcePoint" />
            <mxPoint x="490" y="800" as="targetPoint" />
          </mxGeometry>
        </mxCell>
        <mxCell id="l3sn0E2gZxe4r7Lx6oQ4-68" value="時刻の入力" style="text;html=1;align=center;verticalAlign=middle;whiteSpace=wrap;rounded=0;" vertex="1" parent="1">
          <mxGeometry x="210" y="790" width="65" height="30" as="geometry" />
        </mxCell>
        <mxCell id="l3sn0E2gZxe4r7Lx6oQ4-69" value="" style="endArrow=classic;html=1;rounded=0;" edge="1" parent="1">
          <mxGeometry width="50" height="50" relative="1" as="geometry">
            <mxPoint x="320" y="780" as="sourcePoint" />
            <mxPoint x="530" y="780" as="targetPoint" />
          </mxGeometry>
        </mxCell>
        <mxCell id="l3sn0E2gZxe4r7Lx6oQ4-70" value="入力された時刻を登録する" style="text;html=1;align=center;verticalAlign=middle;whiteSpace=wrap;rounded=0;" vertex="1" parent="1">
          <mxGeometry x="440" y="750" width="80" height="30" as="geometry" />
        </mxCell>
        <mxCell id="l3sn0E2gZxe4r7Lx6oQ4-71" value="" style="endArrow=classic;html=1;rounded=0;" edge="1" parent="1">
          <mxGeometry width="50" height="50" relative="1" as="geometry">
            <mxPoint x="550" y="790" as="sourcePoint" />
            <mxPoint x="659.5" y="790" as="targetPoint" />
          </mxGeometry>
        </mxCell>
        <mxCell id="l3sn0E2gZxe4r7Lx6oQ4-72" value="時刻の保存" style="text;html=1;align=center;verticalAlign=middle;whiteSpace=wrap;rounded=0;" vertex="1" parent="1">
          <mxGeometry x="570" y="760" width="70" height="30" as="geometry" />
        </mxCell>
        <mxCell id="l3sn0E2gZxe4r7Lx6oQ4-73" value="" style="endArrow=block;dashed=1;endFill=0;endSize=12;html=1;rounded=0;" edge="1" parent="1" source="l3sn0E2gZxe4r7Lx6oQ4-46">
          <mxGeometry width="160" relative="1" as="geometry">
            <mxPoint x="390" y="830" as="sourcePoint" />
            <mxPoint x="550" y="830" as="targetPoint" />
          </mxGeometry>
        </mxCell>
        <mxCell id="l3sn0E2gZxe4r7Lx6oQ4-74" value="保存完了" style="text;html=1;align=center;verticalAlign=middle;whiteSpace=wrap;rounded=0;" vertex="1" parent="1">
          <mxGeometry x="570" y="800" width="60" height="30" as="geometry" />
        </mxCell>
        <mxCell id="l3sn0E2gZxe4r7Lx6oQ4-75" value="" style="endArrow=classic;html=1;rounded=0;" edge="1" parent="1">
          <mxGeometry width="50" height="50" relative="1" as="geometry">
            <mxPoint x="422.47736842105246" y="850" as="sourcePoint" />
            <mxPoint x="537.53" y="850" as="targetPoint" />
          </mxGeometry>
        </mxCell>
        <mxCell id="l3sn0E2gZxe4r7Lx6oQ4-77" value="挨拶をする時刻を登録する" style="text;html=1;align=center;verticalAlign=middle;whiteSpace=wrap;rounded=0;" vertex="1" parent="1">
          <mxGeometry x="440" y="820" width="80" height="30" as="geometry" />
        </mxCell>
        <mxCell id="l3sn0E2gZxe4r7Lx6oQ4-78" value="" style="endArrow=classic;html=1;rounded=0;" edge="1" parent="1">
          <mxGeometry width="50" height="50" relative="1" as="geometry">
            <mxPoint x="78.25" y="850" as="sourcePoint" />
            <mxPoint x="421.75" y="850" as="targetPoint" />
          </mxGeometry>
        </mxCell>
        <mxCell id="l3sn0E2gZxe4r7Lx6oQ4-83" value="挨拶を入力" style="text;html=1;align=center;verticalAlign=middle;whiteSpace=wrap;rounded=0;" vertex="1" parent="1">
          <mxGeometry x="330" y="820" width="70" height="30" as="geometry" />
        </mxCell>
      </root>
    </mxGraphModel>
  </diagram>
</mxfile>
